<svg width="250" height="250" viewBox="0 0 250 250" fill="none" xmlns="http://www.w3.org/2000/svg">
<g clip-path="url(#clip0_379_369)">
<path d="M125 250C194.036 250 250 194.036 250 125C250 55.9644 194.036 0 125 0C55.9644 0 0 55.9644 0 125C0 194.036 55.9644 250 125 250Z" fill="#1BC770"/>
<path d="M182.138 158.322C183.125 146.809 174.819 140.395 166.809 140.23C159.21 140.033 149.885 146.217 150.888 158.322H103.618C103.911 156.029 103.72 153.699 103.057 151.483C102.394 149.268 101.274 147.216 99.7695 145.46H135.279C135.369 144.965 135.429 144.466 135.46 143.964C135.46 129.709 135.46 115.455 135.46 101.201C135.46 97.0065 136.809 95.6578 141.036 95.6578H161.595C163.136 95.5937 164.659 96.0083 165.955 96.8447C167.251 97.6811 168.256 98.8982 168.832 100.329C171.645 106.053 174.572 111.727 177.368 117.451C178.578 120.026 180.708 122.056 183.339 123.141C184.614 123.599 185.708 124.456 186.457 125.585C187.207 126.714 187.572 128.055 187.5 129.408V153.651C187.5 157.105 185.559 158.766 182.138 158.322V158.322ZM157.467 121.858H167.122C167.122 121.858 171.036 120.559 169.885 117.714C167.96 113.01 165.97 108.339 164.079 103.618C163.841 102.825 163.343 102.135 162.666 101.658C161.99 101.181 161.172 100.944 160.345 100.987H145.247C143.832 100.987 143.273 101.595 143.289 103.01V117.582C143.243 118.157 143.324 118.734 143.525 119.275C143.727 119.815 144.044 120.304 144.454 120.709C144.865 121.113 145.36 121.423 145.903 121.616C146.446 121.809 147.025 121.88 147.598 121.826L157.467 121.858Z" fill="white"/>
<path d="M125 82.3848C115.131 82.3848 105.23 82.3848 95.2956 82.3848C85.9864 82.3848 76.6772 82.3848 67.3351 82.3848C66.683 82.2932 66.0186 82.3535 65.3936 82.5608C64.7686 82.7682 64.1999 83.1171 63.7319 83.5803C63.2639 84.0435 62.9092 84.6086 62.6954 85.2314C62.4817 85.8543 62.4147 86.518 62.4996 87.171V88.8158C62.4996 104.167 62.4996 119.518 62.4996 134.868C62.4996 138.651 63.8976 140.033 67.7298 140.033H96.414H125.394C128.766 140.033 130.213 138.569 130.213 135.197C130.213 119.375 130.213 103.564 130.213 87.7631C130.23 83.7829 128.799 82.3848 125 82.3848V82.3848ZM72.4996 121.711C72.305 121.525 72.1502 121.301 72.0444 121.054C71.9386 120.807 71.884 120.54 71.884 120.271C71.884 120.002 71.9386 119.736 72.0444 119.489C72.1502 119.241 72.305 119.018 72.4996 118.832L79.8022 111.546C79.9338 111.414 80.0983 111.316 80.2792 111.168L75.8548 106.76L72.5654 103.47C72.3683 103.289 72.2097 103.071 72.099 102.827C71.9884 102.583 71.928 102.32 71.9215 102.053C71.915 101.785 71.9625 101.519 72.0612 101.27C72.1598 101.022 72.3076 100.795 72.4956 100.605C72.6837 100.415 72.9082 100.265 73.1557 100.163C73.4033 100.061 73.6687 100.011 73.9362 100.014C74.2037 100.018 74.4678 100.075 74.7127 100.183C74.9576 100.29 75.1782 100.446 75.3614 100.641L84.4404 109.737C84.6379 109.924 84.7953 110.15 84.9028 110.4C85.0103 110.651 85.0658 110.92 85.0658 111.192C85.0658 111.465 85.0103 111.734 84.9028 111.985C84.7953 112.235 84.6379 112.461 84.4404 112.648C81.414 115.641 78.3768 118.662 75.3285 121.711C75.1458 121.902 74.9263 122.054 74.6832 122.157C74.44 122.261 74.1784 122.315 73.914 122.315C73.6497 122.315 73.388 122.261 73.1449 122.157C72.9018 122.054 72.6823 121.902 72.4996 121.711ZM84.4239 121.711C84.2294 121.525 84.0745 121.301 83.9687 121.054C83.8629 120.807 83.8084 120.54 83.8084 120.271C83.8084 120.002 83.8629 119.736 83.9687 119.489C84.0745 119.241 84.2294 119.018 84.4239 118.832L91.7265 111.546C91.8581 111.414 92.0226 111.316 92.2035 111.168L87.8285 106.76L84.5391 103.47C84.3419 103.289 84.1833 103.071 84.0727 102.827C83.9621 102.583 83.9017 102.32 83.8952 102.053C83.8887 101.785 83.9362 101.519 84.0348 101.27C84.1335 101.022 84.2812 100.795 84.4693 100.605C84.6574 100.415 84.8819 100.265 85.1294 100.163C85.3769 100.061 85.6424 100.011 85.9099 100.014C86.1774 100.018 86.4415 100.075 86.6864 100.183C86.9313 100.29 87.1519 100.446 87.3351 100.641C90.3614 103.668 93.4042 106.694 96.414 109.737C96.6116 109.924 96.769 110.15 96.8765 110.4C96.984 110.651 97.0395 110.92 97.0395 111.192C97.0395 111.465 96.984 111.734 96.8765 111.985C96.769 112.235 96.6116 112.461 96.414 112.648L87.2529 121.711C87.0701 121.902 86.8506 122.054 86.6075 122.157C86.3644 122.261 86.1028 122.315 85.8384 122.315C85.574 122.315 85.3124 122.261 85.0693 122.157C84.8262 122.054 84.6066 121.902 84.4239 121.711V121.711ZM96.3483 121.711C96.1537 121.525 95.9989 121.301 95.8931 121.054C95.7873 120.807 95.7327 120.54 95.7327 120.271C95.7327 120.002 95.7873 119.736 95.8931 119.489C95.9989 119.241 96.1537 119.018 96.3483 118.832L103.651 111.546C103.782 111.414 103.947 111.316 104.128 111.168L99.72 106.76C98.5851 105.641 97.4667 104.523 96.4305 103.47C96.2334 103.289 96.0748 103.071 95.9642 102.827C95.8535 102.583 95.7932 102.32 95.7867 102.053C95.7802 101.785 95.8276 101.519 95.9263 101.27C96.0249 101.022 96.1727 100.795 96.3608 100.605C96.5488 100.415 96.7733 100.265 97.0209 100.163C97.2684 100.061 97.5338 100.011 97.8014 100.014C98.0689 100.018 98.333 100.075 98.5778 100.183C98.8227 100.29 99.0434 100.446 99.2266 100.641C102.22 103.618 105.263 106.612 108.289 109.655C108.485 109.843 108.64 110.069 108.746 110.319C108.852 110.57 108.907 110.838 108.907 111.11C108.907 111.382 108.852 111.651 108.746 111.901C108.64 112.151 108.485 112.377 108.289 112.566C105.263 115.609 102.236 118.651 99.1772 121.711C98.9945 121.902 98.7749 122.054 98.5318 122.157C98.2887 122.261 98.0271 122.315 97.7627 122.315C97.4984 122.315 97.2367 122.261 96.9936 122.157C96.7505 122.054 96.531 121.902 96.3483 121.711ZM120.23 112.566C117.204 115.614 114.161 118.662 111.102 121.711C110.919 121.902 110.699 122.054 110.456 122.157C110.213 122.261 109.951 122.315 109.687 122.315C109.423 122.315 109.161 122.261 108.918 122.157C108.675 122.054 108.455 121.902 108.273 121.711C108.078 121.525 107.923 121.301 107.817 121.054C107.712 120.807 107.657 120.54 107.657 120.271C107.657 120.002 107.712 119.736 107.817 119.489C107.923 119.241 108.078 119.018 108.273 118.832C110.707 116.398 113.147 113.969 115.592 111.546C115.736 111.409 115.89 111.282 116.052 111.168L111.644 106.76C110.509 105.641 109.391 104.523 108.355 103.47C108.158 103.289 107.999 103.071 107.889 102.827C107.778 102.583 107.718 102.32 107.711 102.053C107.704 101.785 107.752 101.519 107.851 101.27C107.949 101.022 108.097 100.795 108.285 100.605C108.473 100.415 108.698 100.265 108.945 100.163C109.193 100.061 109.458 100.011 109.726 100.014C109.993 100.018 110.257 100.075 110.502 100.183C110.747 100.29 110.968 100.446 111.151 100.641C114.177 103.668 117.22 106.694 120.246 109.737C120.618 110.115 120.824 110.625 120.821 111.155C120.818 111.685 120.606 112.192 120.23 112.566V112.566Z" fill="white"/>
<path d="M87.8124 167.632C86.2568 167.612 84.7204 167.285 83.2923 166.668C81.8642 166.051 80.5727 165.156 79.4927 164.036C78.4127 162.917 77.5656 161.594 77.0005 160.144C76.4354 158.695 76.1635 157.147 76.2006 155.592C76.2438 154.05 76.5903 152.531 77.2204 151.123C77.8505 149.715 78.7518 148.444 79.8728 147.385C80.9938 146.325 82.3126 145.496 83.7539 144.946C85.1952 144.395 86.7308 144.134 88.273 144.178C89.8151 144.221 91.3337 144.567 92.7419 145.197C94.1502 145.827 95.4206 146.729 96.4805 147.85C97.5404 148.971 98.3692 150.29 98.9194 151.731C99.4697 153.172 99.7307 154.708 99.6875 156.25C99.5971 159.326 98.3015 162.243 96.08 164.372C93.8585 166.501 90.8892 167.672 87.8124 167.632Z" fill="white"/>
<path d="M166.595 167.632C164.258 167.654 161.966 166.982 160.011 165.699C158.056 164.417 156.527 162.582 155.617 160.428C154.707 158.275 154.458 155.899 154.901 153.604C155.345 151.308 156.46 149.196 158.107 147.536C159.753 145.876 161.855 144.742 164.147 144.28C166.439 143.817 168.816 144.046 170.978 144.938C173.139 145.829 174.986 147.343 176.285 149.287C177.584 151.231 178.276 153.517 178.273 155.855C178.28 157.395 177.983 158.922 177.399 160.347C176.816 161.772 175.958 163.068 174.873 164.162C173.789 165.256 172.5 166.125 171.079 166.72C169.659 167.315 168.135 167.625 166.595 167.632V167.632Z" fill="white"/>
<path d="M72.4664 158.487C70.3447 158.487 68.5355 158.487 66.7263 158.487C65.6542 158.459 64.6325 158.026 63.8667 157.275C63.1008 156.525 62.6475 155.512 62.598 154.441C62.4582 152.75 62.4582 151.05 62.598 149.359C62.6506 148.376 63.0581 147.446 63.7448 146.741C64.4315 146.036 65.3506 145.605 66.3315 145.526C69.4565 145.362 72.6144 145.526 76.2 145.526C74.697 147.3 73.5871 149.372 72.9436 151.606C72.3 153.84 72.1374 156.185 72.4664 158.487V158.487Z" fill="white"/>
</g>
<defs>
<clipPath id="clip0_379_369">
<rect width="250" height="250" fill="white"/>
</clipPath>
</defs>
</svg>
