<svg width="250" height="250" viewBox="0 0 250 250" fill="none" xmlns="http://www.w3.org/2000/svg">
<g clip-path="url(#clip0_379_397)">
<path d="M125 250C194.036 250 250 194.036 250 125C250 55.9644 194.036 0 125 0C55.9644 0 0 55.9644 0 125C0 194.036 55.9644 250 125 250Z" fill="#1BC770"/>
<path d="M146.25 67.8619C139.5 64.2208 131.927 62.3737 124.258 62.4975C116.589 62.6214 109.081 64.712 102.451 68.5691C85.9049 77.6974 77.9279 92.3026 77.5332 108.832C77.6415 119.694 80.1109 130.402 84.77 140.214C90.8777 153.005 99.1773 164.627 109.293 174.556C113.29 178.569 117.517 182.303 121.859 186.069C122.23 186.515 122.693 186.876 123.217 187.127C123.74 187.379 124.311 187.514 124.892 187.525C125.472 187.536 126.048 187.422 126.58 187.191C127.113 186.959 127.589 186.616 127.977 186.184C139.441 177.053 149.427 166.207 157.583 154.03C165.21 143.054 170.171 130.45 172.073 117.22C174.688 96.4474 164.935 77.3026 146.25 67.8619ZM118.668 137.516L100.329 119.178L110.05 109.441L118.865 119.013L130.724 109.145L142.583 99.2763L149.671 106.53L118.668 137.516Z" fill="white"/>
</g>
<defs>
<clipPath id="clip0_379_397">
<rect width="250" height="250" fill="white"/>
</clipPath>
</defs>
</svg>
