<svg width="250" height="250" viewBox="0 0 250 250" fill="none" xmlns="http://www.w3.org/2000/svg">
<g clip-path="url(#clip0_380_433)">
<path d="M125 250C194.036 250 250 194.036 250 125C250 55.9644 194.036 0 125 0C55.9644 0 0 55.9644 0 125C0 194.036 55.9644 250 125 250Z" fill="#1BC770"/>
<path d="M125 62.5C112.639 62.5 100.555 66.1656 90.2769 73.0332C79.9988 79.9007 71.988 89.6619 67.2576 101.082C62.5271 112.503 61.2894 125.069 63.7009 137.193C66.1125 149.317 72.0651 160.453 80.8059 169.194C89.5466 177.935 100.683 183.888 112.807 186.299C124.931 188.711 137.497 187.473 148.918 182.742C160.338 178.012 170.099 170.001 176.967 159.723C183.834 149.445 187.5 137.361 187.5 125C187.5 108.424 180.915 92.5269 169.194 80.8058C157.473 69.0848 141.576 62.5 125 62.5V62.5ZM148.026 134.046H134.046V148.026C134.153 149.279 133.999 150.54 133.593 151.73C133.186 152.92 132.538 154.013 131.687 154.939C130.837 155.865 129.803 156.605 128.652 157.11C127.501 157.616 126.257 157.877 125 157.877C123.743 157.877 122.499 157.616 121.348 157.11C120.197 156.605 119.163 155.865 118.313 154.939C117.462 154.013 116.814 152.92 116.408 151.73C116.001 150.54 115.847 149.279 115.954 148.026V134.046H101.974C100.721 134.153 99.4596 133.999 98.2696 133.592C97.0796 133.186 95.987 132.538 95.0608 131.687C94.1347 130.837 93.3953 129.803 92.8896 128.652C92.3838 127.501 92.1226 126.257 92.1226 125C92.1226 123.743 92.3838 122.499 92.8896 121.348C93.3953 120.197 94.1347 119.163 95.0608 118.313C95.987 117.462 97.0796 116.814 98.2696 116.408C99.4596 116.001 100.721 115.847 101.974 115.954H115.954V101.974C115.847 100.721 116.001 99.4596 116.408 98.2696C116.814 97.0796 117.462 95.9869 118.313 95.0608C119.163 94.1347 120.197 93.3953 121.348 92.8895C122.499 92.3838 123.743 92.1226 125 92.1226C126.257 92.1226 127.501 92.3838 128.652 92.8895C129.803 93.3953 130.837 94.1347 131.687 95.0608C132.538 95.9869 133.186 97.0796 133.593 98.2696C133.999 99.4596 134.153 100.721 134.046 101.974V115.954H148.026C149.279 115.847 150.54 116.001 151.73 116.408C152.92 116.814 154.013 117.462 154.939 118.313C155.865 119.163 156.605 120.197 157.11 121.348C157.616 122.499 157.877 123.743 157.877 125C157.877 126.257 157.616 127.501 157.11 128.652C156.605 129.803 155.865 130.837 154.939 131.687C154.013 132.538 152.92 133.186 151.73 133.592C150.54 133.999 149.279 134.153 148.026 134.046V134.046Z" fill="white"/>
<circle cx="124.5" cy="124.5" r="43.5" fill="white"/>
<path d="M126.776 101.451L132.69 113.74C133.059 114.508 133.774 115.041 134.601 115.164L147.824 117.134C149.906 117.444 150.737 120.068 149.231 121.574L139.662 131.14C139.064 131.738 138.791 132.599 138.932 133.444L141.191 146.951C141.547 149.078 139.37 150.699 137.508 149.695L125.681 143.318C124.942 142.919 124.058 142.919 123.319 143.318L111.491 149.695C109.629 150.699 107.453 149.078 107.809 146.951L110.067 133.444C110.208 132.599 109.936 131.738 109.337 131.14L99.7692 121.574C98.263 120.068 99.094 117.445 101.176 117.135L114.399 115.164C115.226 115.041 115.94 114.508 116.31 113.74L122.224 101.451C123.155 99.5164 125.845 99.5164 126.776 101.451Z" fill="#1BC770"/>
</g>
<defs>
<clipPath id="clip0_380_433">
<rect width="250" height="250" fill="white"/>
</clipPath>
</defs>
</svg>
