<svg width="250" height="250" viewBox="0 0 250 250" fill="none" xmlns="http://www.w3.org/2000/svg">
<g clip-path="url(#clip0_379_402)">
<path d="M125 250C194.036 250 250 194.036 250 125C250 55.9644 194.036 0 125 0C55.9644 0 0 55.9644 0 125C0 194.036 55.9644 250 125 250Z" fill="#1BC770"/>
<path d="M126.694 110.395H120.065V124.737L126.694 123.865V110.395Z" fill="white"/>
<path d="M145.691 110.395H139.474V122.171L145.691 121.349V110.395Z" fill="white"/>
<path d="M136.381 110.395H129.77V123.454L136.381 122.582V110.395Z" fill="white"/>
<path d="M170.296 83.3059C154.737 77.4836 139.046 71.7928 125.165 62.5C122.063 64.535 118.845 66.3858 115.526 68.0428C101.678 74.0132 87.7632 79.6875 73.8323 85.3783C72.1875 86.0855 71.25 86.7599 71.25 88.8322C71.0637 101.827 72.6518 114.787 75.9704 127.352C83.2237 153.668 98.2566 173.898 122.533 186.859C123.22 187.208 123.97 187.415 124.739 187.466C125.508 187.517 126.28 187.411 127.007 187.155C140.747 180.219 152.433 169.808 160.905 156.957C173.207 138.322 178.059 117.484 178.684 95.5263C178.931 86.3651 178.882 86.5132 170.296 83.3059V83.3059ZM118.421 150.329C117.367 150.329 116.337 150.016 115.46 149.431C114.584 148.845 113.901 148.013 113.498 147.039C113.094 146.066 112.989 144.994 113.195 143.96C113.4 142.927 113.908 141.977 114.653 141.232C115.398 140.487 116.348 139.979 117.381 139.773C118.415 139.568 119.487 139.673 120.46 140.077C121.434 140.48 122.266 141.163 122.852 142.039C123.437 142.916 123.75 143.946 123.75 145C123.75 146.413 123.189 147.769 122.189 148.768C121.19 149.768 119.834 150.329 118.421 150.329V150.329ZM144.095 150.329C143.041 150.332 142.009 150.022 141.13 149.439C140.252 148.855 139.566 148.024 139.16 147.051C138.755 146.077 138.647 145.005 138.85 143.97C139.054 142.936 139.56 141.985 140.305 141.238C141.05 140.491 141.999 139.982 143.033 139.775C144.067 139.568 145.14 139.672 146.114 140.075C147.089 140.478 147.922 141.161 148.509 142.038C149.095 142.914 149.408 143.945 149.408 145C149.408 145.701 149.27 146.395 149.001 147.043C148.732 147.691 148.338 148.279 147.841 148.774C147.345 149.269 146.755 149.661 146.107 149.928C145.458 150.195 144.764 150.331 144.063 150.329H144.095ZM149.474 137.023H110.378C109.254 137.019 108.177 136.57 107.383 135.775C106.588 134.981 106.139 133.904 106.135 132.78V105.066H100.559C99.8439 105.066 99.1578 104.782 98.6519 104.276C98.1461 103.77 97.8619 103.084 97.8619 102.368C97.8619 101.653 98.1461 100.967 98.6519 100.461C99.1578 99.9552 99.8439 99.6711 100.559 99.6711H107.286C108.41 99.6754 109.487 100.124 110.282 100.919C111.077 101.714 111.525 102.79 111.53 103.914V106.546H146.069C146.987 106.546 147.867 106.909 148.517 107.557C149.168 108.204 149.535 109.082 149.54 110V121.513C149.526 122.417 149.185 123.285 148.58 123.956C147.975 124.628 147.147 125.057 146.25 125.164L111.431 129.77V131.579H149.26C149.975 131.579 150.661 131.863 151.167 132.369C151.673 132.875 151.957 133.561 151.957 134.276C151.957 134.992 151.673 135.678 151.167 136.184C150.661 136.689 149.975 136.974 149.26 136.974L149.474 137.023Z" fill="white"/>
<path d="M116.99 110.395H111.529V125.872L116.99 125.148V110.395Z" fill="white"/>
</g>
<defs>
<clipPath id="clip0_379_402">
<rect width="250" height="250" fill="white"/>
</clipPath>
</defs>
</svg>
