<svg width="250" height="250" viewBox="0 0 250 250" fill="none" xmlns="http://www.w3.org/2000/svg">
<g clip-path="url(#clip0_379_379)">
<path d="M125 250C194.036 250 250 194.036 250 125C250 55.9644 194.036 0 125 0C55.9644 0 0 55.9644 0 125C0 194.036 55.9644 250 125 250Z" fill="#1BC770"/>
<path d="M127.039 129.342L125.395 141.168C126.601 141.057 127.788 140.797 128.931 140.395C129.802 140.105 130.612 139.653 131.316 139.062C131.876 138.584 132.325 137.989 132.631 137.319C132.924 136.662 133.07 135.949 133.059 135.23C133.079 134.569 132.957 133.912 132.701 133.302C132.446 132.692 132.063 132.144 131.579 131.694C130.261 130.58 128.71 129.776 127.039 129.342V129.342Z" fill="white"/>
<path d="M116.94 112.253C116.943 112.799 117.062 113.338 117.289 113.834C117.516 114.33 117.845 114.772 118.256 115.132C119.387 116.075 120.68 116.805 122.072 117.286L123.569 106.908C121.707 106.948 119.905 107.575 118.421 108.701C117.937 109.154 117.554 109.706 117.299 110.318C117.044 110.93 116.922 111.59 116.94 112.253V112.253Z" fill="white"/>
<path d="M184.21 116.908L175.986 108.684C173.87 106.524 172.688 103.617 172.697 100.592V88.898C172.697 85.8445 171.484 82.9161 169.325 80.757C167.166 78.5979 164.237 77.3849 161.184 77.3849H149.506C146.481 77.3939 143.575 76.2123 141.414 74.0954L133.19 65.8717C131.035 63.7423 128.128 62.5482 125.098 62.5482C122.069 62.5482 119.161 63.7423 117.006 65.8717L108.783 74.0954C107.717 75.1496 106.453 75.9828 105.065 76.5473C103.676 77.1119 102.189 77.3965 100.69 77.3849H88.8977C85.8442 77.3849 82.9158 78.5979 80.7566 80.757C78.5975 82.9161 77.3845 85.8445 77.3845 88.898V100.559C77.3961 102.058 77.1115 103.545 76.547 104.933C75.9825 106.322 75.1492 107.586 74.095 108.651L65.8713 116.875C63.742 119.03 62.5479 121.938 62.5479 124.967C62.5479 127.997 63.742 130.904 65.8713 133.059L74.095 141.283C76.2159 143.447 77.3979 146.361 77.3845 149.391V161.184C77.3845 164.238 78.5975 167.166 80.7566 169.325C82.9158 171.484 85.8442 172.697 88.8977 172.697H100.559C102.058 172.686 103.544 172.97 104.933 173.535C106.322 174.099 107.585 174.933 108.651 175.987L116.875 184.211C119.03 186.34 121.937 187.534 124.967 187.534C127.996 187.534 130.904 186.34 133.059 184.211L141.283 175.987C143.443 173.87 146.35 172.688 149.375 172.697H161.184C164.237 172.697 167.166 171.484 169.325 169.325C171.484 167.166 172.697 164.238 172.697 161.184V149.441C172.684 146.41 173.866 143.497 175.986 141.332L184.21 133.109C186.345 130.953 187.542 128.042 187.542 125.008C187.542 121.975 186.345 119.064 184.21 116.908V116.908ZM141.71 140.296C140.761 142.153 139.393 143.763 137.713 145C135.91 146.361 133.877 147.386 131.71 148.026C129.247 148.745 126.707 149.17 124.144 149.293L122.73 158.931H115.937L117.335 149.211C113.808 148.964 110.315 148.363 106.908 147.418V138.388C108.733 138.98 110.658 139.539 112.664 140.033C114.611 140.524 116.589 140.881 118.585 141.102L120.559 127.138C118.914 126.579 117.269 125.921 115.625 125.197C114.052 124.499 112.58 123.591 111.25 122.5C109.961 121.42 108.899 120.095 108.125 118.602C107.281 116.884 106.864 114.989 106.908 113.076C106.898 111.312 107.251 109.566 107.944 107.944C108.691 106.263 109.817 104.777 111.233 103.602C112.873 102.225 114.752 101.16 116.776 100.461C119.37 99.5798 122.08 99.0866 124.819 98.9967L126.019 91.1349H132.796L131.595 99.3586C132.96 99.4901 134.309 99.6546 135.625 99.8684C136.94 100.082 138.223 100.313 139.424 100.592V108.816C138.042 108.388 136.562 107.993 135.016 107.664C133.47 107.336 131.924 107.089 130.411 106.924L128.602 119.49C130.312 120.115 132.039 120.789 133.783 121.513C135.46 122.219 137.041 123.137 138.486 124.243C139.87 125.349 141.011 126.726 141.842 128.289C142.761 129.995 143.214 131.912 143.158 133.849C143.2 136.083 142.704 138.295 141.71 140.296V140.296Z" fill="white"/>
</g>
<defs>
<clipPath id="clip0_379_379">
<rect width="250" height="250" fill="white"/>
</clipPath>
</defs>
</svg>
