<svg width="250" height="250" viewBox="0 0 250 250" fill="none" xmlns="http://www.w3.org/2000/svg">
<g clip-path="url(#clip0_381_485)">
<path d="M125 250C194.036 250 250 194.036 250 125C250 55.9644 194.036 0 125 0C55.9644 0 0 55.9644 0 125C0 194.036 55.9644 250 125 250Z" fill="#1BC770"/>
<path d="M109.75 71.625H132.629V94.5H109.75V71.625Z" fill="white"/>
<path d="M147.875 109.75C156.131 109.743 164.164 112.434 170.75 117.413V83.0625C170.741 80.0319 169.533 77.128 167.39 74.985C165.247 72.842 162.343 71.6341 159.312 71.625H140.25V94.5C140.244 96.5204 139.439 98.4564 138.01 99.885C136.581 101.314 134.645 102.119 132.625 102.125H109.75C107.73 102.119 105.794 101.314 104.365 99.885C102.936 98.4564 102.131 96.5204 102.125 94.5V71.625H83.0625C80.0319 71.6341 77.128 72.842 74.985 74.985C72.842 77.128 71.6341 80.0319 71.625 83.0625V155.5C71.6341 158.531 72.842 161.435 74.985 163.578C77.128 165.721 80.0319 166.928 83.0625 166.938H114.859C111.513 161.142 109.751 154.567 109.751 147.875C109.751 141.183 111.512 134.609 114.859 128.813C118.205 123.017 123.017 118.204 128.813 114.858C134.608 111.512 141.183 109.75 147.875 109.75V109.75Z" fill="white"/>
<path d="M147.875 117.375C141.843 117.375 135.946 119.164 130.93 122.515C125.914 125.867 122.005 130.63 119.697 136.203C117.388 141.776 116.784 147.909 117.961 153.825C119.138 159.742 122.043 165.176 126.308 169.442C130.574 173.707 136.008 176.612 141.925 177.789C147.841 178.966 153.974 178.362 159.547 176.053C165.12 173.745 169.883 169.836 173.235 164.82C176.586 159.804 178.375 153.907 178.375 147.875C178.366 139.789 175.15 132.036 169.432 126.318C163.714 120.6 155.961 117.384 147.875 117.375ZM155.5 151.688H151.688V155.5C151.688 156.511 151.286 157.481 150.571 158.196C149.856 158.911 148.886 159.312 147.875 159.312C146.864 159.312 145.894 158.911 145.179 158.196C144.464 157.481 144.063 156.511 144.063 155.5V151.688H140.25C139.239 151.688 138.269 151.286 137.554 150.571C136.839 149.856 136.438 148.886 136.438 147.875C136.438 146.864 136.839 145.894 137.554 145.179C138.269 144.464 139.239 144.062 140.25 144.062H144.063V140.25C144.063 139.239 144.464 138.269 145.179 137.554C145.894 136.839 146.864 136.438 147.875 136.438C148.886 136.438 149.856 136.839 150.571 137.554C151.286 138.269 151.688 139.239 151.688 140.25V144.062H155.5C156.511 144.062 157.481 144.464 158.196 145.179C158.911 145.894 159.313 146.864 159.313 147.875C159.313 148.886 158.911 149.856 158.196 150.571C157.481 151.286 156.511 151.688 155.5 151.688Z" fill="white"/>
</g>
<defs>
<clipPath id="clip0_381_485">
<rect width="250" height="250" fill="white"/>
</clipPath>
</defs>
</svg>
